<?xml version="1.0" standalone="no"?><!DOCTYPE svg PUBLIC "-//W3C//DTD SVG 1.1//EN" "http://www.w3.org/Graphics/SVG/1.1/DTD/svg11.dtd"><svg t="1539068400495" class="icon" style="" viewBox="0 0 1024 1024" version="1.1" xmlns="http://www.w3.org/2000/svg" p-id="3243" xmlns:xlink="http://www.w3.org/1999/xlink" width="200" height="200"><defs><style type="text/css"></style></defs><path d="M586.356846 356.912863c-48.863071-40.365145-123.219917-33.991701-163.585062 14.871369-40.365145 48.863071-33.991701 123.219917 14.871369 163.585062s123.219917 33.991701 163.585062-14.871369C641.593361 471.634855 635.219917 399.40249 586.356846 356.912863zM556.614108 484.381743c-21.244813 25.493776-57.360996 27.618257-80.73029 8.497925S446.141079 435.518672 467.385892 410.024896c21.244813-25.493776 57.360996-27.618257 80.73029-8.497925C573.609959 422.771784 577.858921 458.887967 556.614108 484.381743z" p-id="3244" fill="#15aabf"></path><path d="M917.775934 446.141079c0-223.070539-180.580913-405.775934-405.775934-405.775934C286.804979 40.365145 106.224066 223.070539 106.224066 446.141079c0 123.219917 55.236515 231.568465 140.215768 305.925311l0 0L488.630705 970.887967c0 0 12.746888 12.746888 23.369295 12.746888 10.622407 0 23.369295-12.746888 23.369295-12.746888l242.190871-216.697095 0 0C862.539419 679.834025 917.775934 569.360996 917.775934 446.141079zM739.319502 709.576763l-214.572614 193.327801c-2.124481 4.248963-8.497925 6.373444-12.746888 6.373444-4.248963 0-8.497925-2.124481-12.746888-4.248963l0 0-214.572614-193.327801C212.448133 647.966805 163.585062 552.365145 163.585062 446.141079c0-191.20332 155.087137-348.414938 348.414938-348.414938S860.414938 254.937759 860.414938 446.141079C860.414938 552.365145 811.551867 645.842324 739.319502 709.576763z" p-id="3245" fill="#15aabf"></path></svg>