<?xml version="1.0" encoding="utf-8"?>
<!DOCTYPE svg PUBLIC "-//W3C//DTD SVG 1.1//EN" "http://www.w3.org/Graphics/SVG/1.1/DTD/svg11.dtd">
<svg version="1.1" xmlns="http://www.w3.org/2000/svg" xmlns:xlink="http://www.w3.org/1999/xlink" x="0px" y="0px" width="64px" height="64px" viewBox="0 0 64 64" id="icon-ac-service">
    <path d="M23.9,22.2c-0.5-1.4-1.3-2.4-2-3.6c0.3-1.2,1.1-1.9,2.9-1.6c0.5,1.2,1.4,2.1,1.8,3.4c1-0.6,1.3-2,2-3c0.7,0,1.3,0,2,0
        c0.3,0.5,0.5,1.1,0.9,1.4c-0.8,1.7-1.8,3.2-2.7,4.8c0.7,2,2,3.4,2.9,5.4c1.4-1.4,2.2-3.4,3.2-5.2c-0.8-1.8-1.9-3.2-2.7-5
        c0.4-0.4,0.6-0.9,0.9-1.4c0.7,0,1.3,0,2,0c0.5,1.1,1,2.2,1.8,3c0.7-1.1,1.4-2.2,2-3.4c0.7,0,1.3,0,2,0c0.3,0.4,0.6,1,0.9,1.4
        c-0.5,1.3-1.4,2.3-2,3.6c0.8,0.4,2.4,0.1,3.6,0.2c0.3,0.5,0.5,1,0.9,1.4c-0.1,0.8-0.7,1.1-0.9,1.8c-1.8,0-3.6,0-5.4,0
        c-1.3,1.5-2.1,3.5-3.2,5.2c1.7,0.4,4.1,0.1,6.1,0.2c1.1-1.5,1.9-3.2,2.9-4.8c0.6,0,1.2,0,1.8,0c0.4,0.5,0.6,1.1,0.9,1.6
        c-0.4,1.2-1.1,2-1.6,3c1,0.4,2.8,0.1,4.1,0.2c0.2,0.6,0.4,1.1,0.9,1.4c-0.2,0.7-0.7,1.1-0.9,1.8c-1.4,0-2.7,0-4.1,0
        c0.4,1.2,1.1,2,1.6,3c-0.2,0.7-0.5,1.2-0.9,1.8c-0.6,0-1.2,0-1.8,0c-0.9-1.6-1.9-3.1-2.7-4.8c-2.1,0-4.2,0-6.3,0
        c0.9,1.9,2,3.6,3,5.4c1.8,0,3.7,0,5.5,0c0.2,0.7,0.8,1,0.9,1.8c-0.4,0.4-0.6,0.9-0.9,1.4c-1.2,0-2.4,0-3.6,0
        c0.5,1.4,1.3,2.4,2,3.6c-0.2,0.6-0.6,1.1-0.9,1.6c-0.7,0-1.3,0-2,0c-0.5-1.2-1.4-2.1-1.8-3.4c-1,0.6-1.3,2-2,3c-0.7,0-1.3,0-2,0
        c-0.2-0.7-0.7-1.1-0.9-1.8c1-1.3,1.7-3,2.7-4.5c-0.8-2-1.9-3.7-3-5.4c-1.2,1.6-2.1,3.4-3,5.2c0.8,1.8,1.9,3.2,2.7,5
        c-0.4,0.4-0.6,0.9-0.9,1.4c-0.7,0-1.3,0-2,0c-0.5-1.1-1-2.2-1.8-3c-0.7,1-1.4,2.2-2,3.4c-0.7,0-1.3,0-2,0c-0.3-0.4-0.6-1-0.9-1.4
        c0.5-1.3,1.4-2.3,2-3.6c-0.8-0.4-2.4-0.1-3.6-0.2c-0.3-0.5-0.5-1-0.9-1.4c0.1-0.8,0.7-1.1,0.9-1.8c1.8,0,3.6,0,5.4,0
        c1.3-1.5,2.1-3.5,3.2-5.2c-1.7-0.4-4.1-0.1-6.1-0.2c-1.1,1.5-1.9,3.2-2.9,4.8c-0.6,0-1.2,0-1.8,0c-0.4-0.5-0.6-1.1-0.9-1.6
        c0.4-1.2,1.1-2,1.6-3c-1-0.4-2.8-0.1-4.1-0.2c-0.2-0.7-0.7-1.1-0.9-1.8c0.5-0.3,0.7-0.9,0.9-1.4c1.4,0,2.7,0,4.1,0
        c-0.4-1.2-1.1-2-1.6-3c0.2-0.7,0.5-1.2,0.9-1.8c0.6,0,1.2,0,1.8,0c0.9,1.6,1.9,3.1,2.7,4.8c2.1,0,4.2,0,6.3,0
        c-0.9-1.9-2-3.6-3-5.4c-1.8,0-3.7,0-5.5,0c-0.2-0.7-0.8-1-0.9-1.8c0.4-0.4,0.6-0.9,0.9-1.4C21.5,22.2,22.7,22.2,23.9,22.2z"/>
</svg>