<?xml version="1.0" encoding="utf-8"?>
<!DOCTYPE svg PUBLIC "-//W3C//DTD SVG 1.1//EN" "http://www.w3.org/Graphics/SVG/1.1/DTD/svg11.dtd">
<svg version="1.1" xmlns="http://www.w3.org/2000/svg" xmlns:xlink="http://www.w3.org/1999/xlink" width="64px" height="64px" viewBox="0 0 64 64" class="icon-alignment">
    <path d="M35.5,18.4l-3.7-3.7l-3.7,3.7h2.2v0h0v2.8h3.1v-2.8h0v0H35.5z"/>
    <path d="M21.2,26.7l-3.7,3.7l3.7,3.7l0-2.2l0,0v0H24V29h-2.8l0,0l0,0V26.7z"/>
    <path d="M42.3,34.2l3.7-3.7l-3.7-3.7v2.2h0v0l-2.8,0l0,3.1h2.8v0h0V34.2z"/>
    <path d="M35.3,42.9l-1.2-2.7l1.2-2.7l-1.2-2.7l1.2-2.7l-1.2-2.7l1.2-2.7l-1.2-2.7l0.8-1.8h-2.4l-0.8,1.8l1.2,2.7l-1.2,2.7l1.2,2.7
        l-1.2,2.7l1.2,2.7l-1.2,2.7l1.2,2.7l-1.2,2.7l1.2,2.7l-0.8,1.8h2.4l0.8-1.8l-1.2-2.7L35.3,42.9z M32,42.9l-1.2-2.7l1.2-2.7
        l-1.2-2.7l1.2-2.7l-1.2-2.7l1.2-2.7l-1.2-2.7l0.8-1.8h-2.4l-0.8,1.8l1.2,2.7l-1.2,2.7l1.2,2.7l-1.2,2.7l1.2,2.7l-1.2,2.7l1.2,2.7
        l-1.2,2.7l1.2,2.7l-0.8,1.8h2.4l0.8-1.8l-1.2-2.7L32,42.9z M28.8,42.9l-1.2-2.7l1.2-2.7l-1.2-2.7l1.2-2.7l-1.2-2.7l1.2-2.7
        l-1.2-2.7l0.8-1.8h-1.6c-1,0-1.9,0.8-1.9,1.9v24.4c0,1,0.8,1.9,1.9,1.9H28l0.8-1.8l-1.2-2.7L28.8,42.9z M36.8,22.1h-1L35,23.9
        l1.2,2.7L35,29.4l1.2,2.7L35,34.8l1.2,2.7L35,40.2l1.2,2.7L35,45.6l1.2,2.7l-0.8,1.8h1.4c1,0,1.9-0.8,1.9-1.9V23.9
        C38.6,22.9,37.8,22.1,36.8,22.1z"/>
</svg>