<?xml version="1.0" encoding="utf-8"?>
<!DOCTYPE svg PUBLIC "-//W3C//DTD SVG 1.1//EN" "http://www.w3.org/Graphics/SVG/1.1/DTD/svg11.dtd">
<svg version="1.1" xmlns="http://www.w3.org/2000/svg" xmlns:xlink="http://www.w3.org/1999/xlink" x="0px" y="0px" width="64px" height="64px" viewBox="0 0 64 64" id="icon-engine-tune-up">
    <path d="M22.2,22.9c-2.8,2.8-2.8,7.4,0,10.2c2.8,2.8,7.4,2.8,10.2,0c2.8-2.8,2.8-7.4,0-10.2C29.6,20.1,25.1,20.1,22.2,22.9z
         M31.3,31.9l-5.3,1.4L22,29.5l1.4-5.3l5.3-1.4l3.9,3.9L31.3,31.9z M35.1,20.3c-4.3-4.3-11.2-4.3-15.4,0c-4.3,4.3-4.3,11.2,0,15.4
        c4.4,4.4,11.1,4.6,15.3,4.3l7.8,7.8l4.5-4.4l-7.9-7.9C39.7,31.4,39.4,24.7,35.1,20.3z M32.9,33.6c-3.1,3.1-8.1,3.1-11.2,0
        c-3.1-3.1-3.1-8.1,0-11.2c3.1-3.1,8.1-3.1,11.2,0S36,30.5,32.9,33.6z"/>
</svg>