<?xml version="1.0" encoding="utf-8"?>
<!DOCTYPE svg PUBLIC "-//W3C//DTD SVG 1.1//EN" "http://www.w3.org/Graphics/SVG/1.1/DTD/svg11.dtd">
<svg version="1.1" xmlns="http://www.w3.org/2000/svg" xmlns:xlink="http://www.w3.org/1999/xlink" width="64px" height="64px" viewBox="0 0 64 64" class="icon-fixed-right-promise">
    <path d="M39.1,24.2c0.3-0.3,0.7-0.9,0.9-1.3l0.4-0.9c0.2-0.4,0.6-0.9,1-1.2l3.5-2.4l1.7,1.6l-2.5,3.6c-0.3,0.4-0.8,0.8-1.2,1
        L42.2,25c-0.4,0.2-1,0.6-1.3,0.9L32.8,34L31,32.3L39.1,24.2z"/>
    <path d="M18.7,42.3l7.2-7.2c0.4-0.4,0.8-0.6,1.1-0.7c1.4-0.3,3.3,3.7,2.5,5l-6.8,6.8c-0.9,0.9-1.8,0.5-2.1,0.2l0,0l-2.1-2.1
        C18.2,44.1,17.9,43.2,18.7,42.3z"/>
    <path d="M17,24.9l0.1,0.2c0.2,0.5,2.3,4.4,3.8,5c0.7,0.2,1.6,0.4,2.6,0.5c1,0.1,2.1,0.3,2.6,0.5c0.7,0.5,1,0.7,1.5,1.1l7.2,7.2
        c-0.5,2-0.1,4.2,1.5,5.8c2.3,2.3,6.2,2.3,8.5,0c2.3-2.3,2.3-6.2,0-8.5c-1.6-1.6-3.9-2.1-5.9-1.5l-7.4-7.4c-1-1.3-1.3-2.9-1.6-4.3
        c-0.3-1.4-0.6-2.8-1.4-3.6c-1.9-1.9-5.3-2.3-7.1-2l-0.2,0l-0.7,1.2l3.7,2.2c0.2,0.1,0.3,0.4,0.2,0.9c-0.1,0.6-0.3,1.2-0.7,1.8
        c-0.2,0.4-0.5,0.8-0.8,1c-0.6,0.6-1.2,0.8-1.4,0.6l-3.7-2.2L17,24.9z M37,41.9l0.9-3.5l3.5-0.9L44,40L43,43.5l-3.5,0.9L37,41.9z"
        />
</svg>