<?xml version="1.0" standalone="no"?><!DOCTYPE svg PUBLIC "-//W3C//DTD SVG 1.1//EN" "http://www.w3.org/Graphics/SVG/1.1/DTD/svg11.dtd"><svg t="1540220165301" class="icon" style="" viewBox="0 0 1024 1024" version="1.1" xmlns="http://www.w3.org/2000/svg" p-id="1102" xmlns:xlink="http://www.w3.org/1999/xlink" width="200" height="200"><defs><style type="text/css"></style></defs><path d="M265.09312 42.01472c-30.24896 35.04128-34.82624 42.22976-34.82624 52.67456 0 11.75552 5.00736 19.58912 31.34464 50.49344 13.9264 16.10752 25.89696 31.55968 26.55232 34.38592 2.18112 7.61856-0.8704 12.1856-26.12224 40.48896-12.62592 14.15168-23.07072 26.55232-23.07072 27.42272 0 0.8704 5.87776 6.74816 13.28128 13.056 11.10016 9.5744 13.71136 11.10016 16.10752 8.48896 15.45216-16.5376 47.88224-54.41536 50.71872-59.63776 2.6112-4.79232 3.69664-11.97056 3.69664-26.33728 0-23.28576 0-23.51104-32.43008-61.5936-11.54048-13.71136-20.89984-25.46688-20.89984-26.12224 0-0.65536 11.97056-15.02208 26.33728-31.77472l26.12224-30.47424-12.62592-11.3152c-6.9632-6.30784-13.49632-11.3152-14.7968-11.3152-1.09568 0-14.36672 14.15168-29.3888 31.55968zM415.92832 40.05888c-35.69664 41.35936-35.69664 41.35936-35.91168 54.41536 0 6.0928 1.08544 13.056 2.39616 15.45216 1.31072 2.39616 13.71136 17.84832 27.648 34.38592 13.9264 16.54784 26.33728 32.21504 27.42272 34.82624 3.05152 6.53312 0.43008 10.4448-28.07808 42.65984l-22.64064 25.46688 10.22976 9.35936c18.71872 17.19296 14.7968 18.2784 43.3152-13.71136 14.15168-15.6672 26.99264-32.21504 28.94848-36.56704 4.352-10.22976 4.352-35.91168 0-45.9264-2.6112-6.0928-26.76736-36.56704-47.88224-60.07808-4.13696-4.56704-4.13696-4.79232 21.98528-35.25632 14.58176-16.76288 26.33728-31.34464 26.33728-32.43008-0.21504-1.7408-22.41536-20.67456-25.89696-21.98528-1.09568-0.43008-13.7216 12.8512-27.87328 29.3888zM561.98144 43.32544c-15.6672 18.2784-29.60384 35.4816-30.90432 38.0928-1.52576 2.6112-2.6112 9.14432-2.6112 14.36672 0 11.54048 3.69664 17.19296 36.56704 55.94112 14.7968 17.63328 22.20032 28.07808 22.20032 31.55968 0 5.43744-2.6112 8.91904-32 41.78944-10.01472 11.10016-18.06336 21.11488-18.06336 22.20032 0 1.08544 5.87776 6.9632 13.056 13.28128l13.056 11.3152 9.35936-10.4448c5.2224-5.87776 16.10752-18.06336 24.1664-26.99264 18.50368-20.67456 25.25184-33.95584 25.25184-50.49344 0-18.50368-4.79232-27.86304-30.90432-58.9824-12.84096-15.45216-23.51104-28.73344-23.51104-29.37856 0-0.8704 11.75552-15.23712 26.12224-32l26.12224-30.47424-12.41088-11.3152c-6.9632-6.30784-13.71136-11.3152-15.02208-11.53024-1.09568-0.02048-15.02208 15.0016-30.47424 33.06496zM710.20544 43.75552c-43.3152 51.1488-43.53024 51.80416-3.05152 99.6864 22.85568 26.99264 28.07808 34.6112 28.07808 40.04864 0 6.53312-9.35936 18.50368-46.36672 58.9824l-4.352 5.00736 12.84096 11.75552c6.9632 6.74816 13.49632 11.97056 14.15168 12.1856 3.26656 0.21504 50.93376-56.3712 54.84544-65.0752 5.66272-12.84096 5.66272-33.30048 0-46.14144-3.69664-8.04864-13.27104-20.24448-48.09728-61.16352-2.82624-3.26656-0.43008-6.74816 23.72608-34.6112l26.7776-30.90432-12.84096-11.75552c-7.17824-6.30784-13.9264-11.53024-15.23712-11.3152-1.09568 0-14.80704 15.02208-30.47424 33.30048zM858.20416 43.75552c-16.97792 20.02944-29.60384 36.99712-31.34464 42.22976-5.2224 14.58176-1.30048 22.20032 29.16352 58.55232 21.77024 25.68192 27.20768 33.51552 27.20768 38.9632 0 5.2224-4.352 11.3152-21.98528 31.55968-12.1856 13.49632-23.51104 26.55232-25.46688 28.73344-3.05152 3.4816-2.18112 4.56704 9.5744 15.6672 6.9632 6.53312 13.49632 11.75552 14.15168 11.97056 3.26656 0.21504 50.93376-56.3712 54.85568-65.0752 5.66272-13.056 5.87776-33.08544 0-45.9264-3.4816-8.27392-13.27104-20.45952-48.09728-61.37856-2.82624-3.26656-0.43008-6.74816 23.72608-34.6112l26.7776-30.90432-12.84096-11.75552c-7.17824-6.30784-13.9264-11.53024-15.23712-11.3152-1.09568-0.01024-14.80704 15.01184-30.48448 33.29024zM210.67776 313.43616c-5.43744 2.6112-13.71136 8.704-18.50368 13.49632-13.28128 13.056-17.19296 23.07072-18.06336 45.056l-0.8704 18.93376-51.58912 0.65536-51.80416 0.65536-10.65984 6.52288c-7.17824 4.56704-13.056 10.4448-17.63328 18.50368-6.9632 11.3152-7.17824 12.62592-7.17824 35.25632 0 26.99264 2.6112 34.17088 16.76288 47.88224 8.27392 8.04864 23.07072 14.7968 32.43008 14.7968 5.2224 0 5.2224 0.21504 5.2224 21.76v21.77024h-7.61856c-17.19296 0-39.61856 17.408-44.84096 34.82624-1.30048 4.36224-1.95584 17.85856-1.51552 29.82912 0.65536 20.45952 1.08544 22.85568 7.17824 31.34464 9.5744 13.71136 22.41536 21.98528 35.69664 23.28576l11.10016 1.08544v46.57152l-11.10016 1.08544c-13.28128 1.30048-26.12224 9.5744-35.69664 23.28576-6.30784 9.14432-6.53312 9.79968-6.53312 35.91168v26.55232l7.61856 10.67008c5.2224 7.17824 11.75552 12.84096 19.37408 16.76288l11.54048 6.0928h99.6864v128.86016l5.87776 10.65984c6.0928 11.3152 15.45216 19.80416 27.86304 25.02656 9.5744 3.92192 65.0752 4.352 78.14144 0.43008 11.97056-3.4816 30.03392-21.54496 33.51552-33.51552 1.52576-5.00736 2.6112-17.408 2.6112-27.86304v-18.71872h520.192v21.11488c0 15.89248 1.08544 23.51104 4.13696 30.03392 5.00736 11.10016 22.20032 26.33728 32.64512 29.37856 4.352 1.08544 21.54496 2.18112 38.30784 2.18112 27.42272 0 31.55968-0.65536 41.35936-5.2224 12.84096-5.87776 23.07072-16.76288 28.07808-29.81888 3.26656-8.704 3.4816-35.69664 3.04128-316.47744l-0.65536-306.8928-5.87776-11.10016c-6.74816-12.84096-20.24448-25.68192-33.08544-31.55968-8.704-3.92192-21.32992-4.13696-369.14176-3.92192H220.47744l-9.79968 4.8128z m731.77088 34.39616c10.88512 5.87776 10.4448-4.79232 10.4448 319.51872 0 272.0768-0.44032 302.76608-3.4816 305.80736-2.6112 2.82624-8.92928 3.4816-32.64512 3.4816-16.32256 0-31.34464-1.08544-33.7408-2.18112-3.92192-2.18112-4.13696-5.00736-4.13696-42.4448v-40.26368H284.68224v38.9632c0 32.64512-0.65536 39.60832-3.4816 42.4448-2.82624 2.82624-9.14432 3.4816-34.38592 3.4816-21.11488 0-31.77472-0.8704-33.51552-2.6112-1.95584-1.95584-2.6112-73.56416-2.6112-309.28896V358.06208l6.30784-6.30784 6.30784-6.30784h357.39648c251.82208-0.01024 358.48192 0.63488 361.74848 2.38592zM171.49952 618.58816v190.45376h-47.6672c-38.0928 0-48.10752-0.65536-50.06336-3.05152-1.7408-1.95584-2.39616-10.01472-1.95584-22.41536l0.65536-19.15904 26.76736-0.65536 26.55232-0.65536V641.44384H101.20192c-16.32256 0-25.46688-0.8704-27.20768-2.6112-3.4816-3.4816-3.4816-36.99712 0-40.48896 1.7408-1.7408 10.88512-2.6112 27.20768-2.6112h24.59648V478.208h-23.07072c-31.56992 0-31.35488 0.21504-31.35488-24.59648 0-12.84096 0.8704-21.11488 2.6112-22.85568 1.95584-1.95584 16.10752-2.6112 50.06336-2.6112h47.45216v190.44352z" p-id="1103" fill="#ffffff"></path><path d="M284.68224 619.68384v208.9472h37.00736V410.7264h-37.00736v208.95744zM395.68384 619.68384v208.9472h37.00736V410.7264h-37.00736v208.95744zM507.12576 619.02848l0.65536 208.51712 18.06336 0.65536 17.84832 0.65536V410.7264h-37.00736l0.44032 208.30208zM618.1376 619.02848l0.65536 208.51712h37.00736l0.65536-208.51712 0.43008-208.30208h-39.17824l0.43008 208.30208zM730.88 619.68384v209.17248l18.06336-0.65536 17.84832-0.65536 0.65536-208.51712 0.44032-208.30208h-37.00736v208.95744zM841.8816 619.68384v208.9472h37.00736V410.7264h-37.00736v208.95744z" p-id="1104" fill="#ffffff"></path></svg>