<?xml version="1.0" encoding="utf-8"?>
<!DOCTYPE svg PUBLIC "-//W3C//DTD SVG 1.1//EN" "http://www.w3.org/Graphics/SVG/1.1/DTD/svg11.dtd">
<svg version="1.1" xmlns="http://www.w3.org/2000/svg" xmlns:xlink="http://www.w3.org/1999/xlink" x="0px" y="0px" width="64px" height="64px" viewBox="0 0 64 64" id="icon-radiator-service">
    <path d="M21.3,46.1c-2.6,0-4.7-2-4.7-4.6l0,0c0-2.6,2.2-4.6,4.7-4.6l0,0h21.1c0.7,0,1.3-0.6,1.3-1.3l0,0c0-0.7-0.6-1.3-1.3-1.3
        l0,0H21.3c-2.6,0-4.7-2.1-4.7-4.7l0,0c0-2.6,2.1-4.7,4.7-4.7l0,0h21.2c0.7,0,1.3-0.6,1.3-1.3l0,0v-0.1c0-0.7-0.6-1.3-1.3-1.3l0,0
        H18.1c-0.9,0-1.7-0.8-1.7-1.7l0,0c0-0.9,0.8-1.7,1.7-1.7l0,0h24.4c2.6,0,4.7,2.1,4.7,4.7l0,0l0,0.1c0,2.6-2.1,4.7-4.7,4.7l0,0
        H21.3c-0.7,0-1.3,0.6-1.3,1.3l0,0c0,0.7,0.6,1.3,1.3,1.3l0,0h21.2c2.6,0,4.7,2.1,4.7,4.7l0,0c0,2.6-2.1,4.7-4.7,4.7l0,0H21.3
        c-0.8,0-1.3,0.6-1.3,1.2l0,0c0,0.6,0.5,1.2,1.3,1.2l0,0h24c0.9,0,1.7,0.8,1.7,1.7l0,0c0,0.9-0.8,1.7-1.7,1.7l0,0H21.3L21.3,46.1z"
        />
</svg>