<?xml version="1.0" encoding="utf-8"?>
<!DOCTYPE svg PUBLIC "-//W3C//DTD SVG 1.1//EN" "http://www.w3.org/Graphics/SVG/1.1/DTD/svg11.dtd">
<svg version="1.1" xmlns="http://www.w3.org/2000/svg" xmlns:xlink="http://www.w3.org/1999/xlink" x="0px" y="0px" width="64px" height="64px" viewBox="0 0 64 64" id="icon-vehicle-inspection">
    <path d="M44.9,39.2c-0.7-2.8-5.5-3.4-7.4-3.7c-0.6-0.1-1.2-0.2-1.8-0.2c0,0-18.1-0.3-18.1-0.3c-1.7,0-1.6,2.5-1.5,3.9
        c0.1,1.4,0.6,2.5,1.4,3.1c-0.2-0.4-0.3-0.9-0.3-1.4c0-1.9,1.5-3.4,3.4-3.4c1.9,0,3.4,1.5,3.4,3.4c0,0.7-0.2,1.3-0.6,1.9
        c3.9,0,9.7,0,13.8,0c-0.4-0.5-0.6-1.2-0.6-1.9c0-1.9,1.5-3.4,3.4-3.4c1.9,0,3.4,1.5,3.4,3.4c0,0.7-0.2,1.3-0.6,1.8
        c1.2-0.1,2-0.5,2.2-2C45,39.9,45,39.5,44.9,39.2z"/>
    <path d="M39.9,37.4c-1.7,0-3,1.4-3,3s1.4,3,3,3s3-1.4,3-3S41.6,37.4,39.9,37.4z M39.9,42.1c-0.9,0-1.6-0.7-1.6-1.6
        c0-0.9,0.7-1.6,1.6-1.6c0.9,0,1.6,0.7,1.6,1.6C41.6,41.3,40.8,42.1,39.9,42.1z"/>
    <path d="M20.5,37.4c-1.7,0-3,1.4-3,3s1.4,3,3,3c1.7,0,3-1.4,3-3S22.2,37.4,20.5,37.4z M20.5,42.1c-0.9,0-1.6-0.7-1.6-1.6
        c0-0.9,0.7-1.6,1.6-1.6s1.6,0.7,1.6,1.6C22.2,41.3,21.4,42.1,20.5,42.1z"/>
    <path d="M31,31.7c0,0-3.2-0.7-6.7,0c-2.4,0.5-5,4.2-5,4.2c9.1,1,18.5-0.2,18.5-0.2C34.6,33,31,31.7,31,31.7z M21.5,35.5
        c0,0,1.9-2.8,3.8-3c2.5-0.3,5,0,5,0s2.4,0.6,4.8,2.8C35.1,35.3,28.3,36.3,21.5,35.5z"/>
    <polygon points="26.1,37.3 25.3,37.4 24.6,32.1 25.3,32      "/>
    <polygon points="34.9,27.2 38.7,33.7 47.5,20.9 38.9,30.2        "/>
</svg>